# xmcd
#
# Track frame offsets:
# 150
# 13782
# 32052
# 46102
# 55798
# 67644
# 79572
# 90728
# 99513
# 117383
# 128877
# 138923
# 146365
# 155487
#
# Disc length: 2192 seconds
#
# Revision: 1
# Processed by: cddbd v1.4PL0 Copyright (c) Steve Scherf et al.
# Submitted via: CedeCatalogueitor 2.5 http://usuarios.lycos.es/kakasboy
#
DISCID=ab088e0e
DTITLE=Ocume - A Cappella
DYEAR=1900
DGENRE=
TTITLE0=Let The River Man
TTITLE1=Stan By Me
TTITLE2=Guantanamera
TTITLE3=The Lord Is My Light
TTITLE4=Love The One You're With
TTITLE5=Quan Ets Tan A Prop
TTITLE6=Summertime
TTITLE7=Frenesi
TTITLE8=Que Tinguem Sort
TTITLE9=Informer
TTITLE10=My Funny Valentine
TTITLE11=Only You
TTITLE12=Caravan Of Love
TTITLE13=Ramala Ding Dong
EXTD=
EXTT0=
EXTT1=
EXTT2=
EXTT3=
EXTT4=
EXTT5=
EXTT6=
EXTT7=
EXTT8=
EXTT9=
EXTT10=
EXTT11=
EXTT12=
EXTT13=
PLAYORDER=
